<svg width="20" height="20" viewBox="0 0 20 20" fill="none" xmlns="http://www.w3.org/2000/svg">
<path fill-rule="evenodd" clip-rule="evenodd" d="M9.99996 1.66669C5.39996 1.66669 1.66663 5.40002 1.66663 10C1.66663 14.6 5.39996 18.3334 9.99996 18.3334C14.6 18.3334 18.3333 14.6 18.3333 10C18.3333 5.40002 14.6 1.66669 9.99996 1.66669ZM9.99996 14.1667C9.54163 14.1667 9.16663 13.7917 9.16663 13.3334V10C9.16663 9.54169 9.54163 9.16669 9.99996 9.16669C10.4583 9.16669 10.8333 9.54169 10.8333 10V13.3334C10.8333 13.7917 10.4583 14.1667 9.99996 14.1667ZM10.8333 7.50002H9.16663V5.83335H10.8333V7.50002Z" fill="#5C5B5A" fill-opacity="0.5"/>
</svg>
