<svg width="34" height="34" viewBox="0 0 34 34" fill="none" xmlns="http://www.w3.org/2000/svg">
<path fill-rule="evenodd" clip-rule="evenodd" d="M17 33.6667C26.2047 33.6667 33.6666 26.2047 33.6666 17C33.6666 7.79525 26.2047 0.333328 17 0.333328C7.79523 0.333328 0.333313 7.79525 0.333313 17C0.333313 26.2047 7.79523 33.6667 17 33.6667ZM22 13.6667C22 16.4281 19.7614 18.6667 17 18.6667C14.2386 18.6667 12 16.4281 12 13.6667C12 10.9052 14.2386 8.66666 17 8.66666C19.7614 8.66666 22 10.9052 22 13.6667ZM6.99876 25.3333C9.27927 22.2972 12.9101 20.3333 16.9997 20.3333C21.0892 20.3333 24.7201 22.2972 27.0006 25.3333C24.7201 28.3694 21.0892 30.3333 16.9997 30.3333C12.9101 30.3333 9.27927 28.3694 6.99876 25.3333Z" fill="#DCD9D5"/>
</svg>
